<?xml version="1.0" encoding="UTF-8"?>
<svg viewBox="0 0 370.00000000000006 80.82844936464592" preserveAspectRatio="xMidYMid meet" class="css-8aabad" id="bfgffaee" xmlns="http://www.w3.org/2000/svg">
    <defs id="SvgjsDefs1001"></defs>
    <g id="SvgjsG1007" featurekey="G09qjj-0" transform="matrix(0.6414956298781422,0,0,0.6414956298781422,-6.0557184768673835,-0.6414956298781422)" fill="#111">
        <g xmlns="http://www.w3.org/2000/svg">
            <polygon points="85.244,27.205 64,1 51.798,46.671"></polygon>
            <polygon points="64,1 42.756,27.205 44.896,61.857"></polygon>
            <polygon points="42.756,100.795 71.696,81.616 9.44,95.5 42.756,100.796 42.757,100.796 64,127 76.201,81.329  "></polygon>
            <polygon points="21.513,64 9.44,95.5 55.094,83.232  "></polygon>
            <polygon points="72.906,44.77 106.487,64 118.56,32.5  "></polygon>
            <polygon points="85.231,27.212 56.303,46.383 118.56,32.5 85.244,27.206  "></polygon>
            <polygon points="64,127 85.244,100.795 83.104,66.143  "></polygon>
            <polygon points="85.244,100.795 85.244,100.796 118.56,95.5 85.107,62.098  "></polygon>
            <polygon points="75.407,48.526 118.56,95.5 106.487,64  "></polygon>
            <polygon points="42.756,27.205 9.44,32.5 42.892,65.902  "></polygon>
            <polygon points="21.525,64.007 52.593,79.475 9.44,32.5 21.513,64  "></polygon>
        </g>
    </g>
    <g id="SvgjsG1008" featurekey="0yvIkK-0" transform="matrix(2.778880449222618,0,0,2.778880449222618,85.83168031997117,-2.2290582551508464)" fill="#111">
        <path d="M6 10.52 q1.8 0 2.65 0.97 t0.87 3.05 l0 5.46 l-1.2 0 l0 -5.4 q0 -1.54 -0.57 -2.27 t-1.75 -0.73 q-1.46 0 -2.32 1.01 t-0.88 2.81 l0 4.58 l-1.2 0 l0 -6.74 q-0.02 -0.58 -0.1 -2.5 l1.2 0 q0.04 1.58 0.08 1.62 l0.06 0 q0.4 -0.84 1.27 -1.35 t1.89 -0.51 z M19.96 14.6 q0 -1.26 -0.94 -2.13 t-2.28 -0.87 q-1.3 0 -2.24 0.87 t-1.1 2.13 l6.56 0 z M16.82 10.52 q1.92 0 3.12 1.24 t1.22 3.2 l0 0.72 l-7.76 0 q0.08 1.56 1.03 2.51 t2.47 0.97 q0.94 0 1.79 -0.45 t1.31 -1.19 l0.88 0.74 q-1.3 1.98 -4 1.98 q-2.12 -0.02 -3.39 -1.38 t-1.29 -3.5 q0 -2.08 1.31 -3.45 t3.31 -1.39 z M24.44 10.76 l2.56 3.5 l2.54 -3.5 l1.5 0 l-3.26 4.24 l3.96 5 l-1.56 0 l-3.22 -4.18 l-3.16 4.18 l-1.44 0 l3.84 -5 l-3.3 -4.24 l1.54 0 z M36.88 20.24 q-1.76 0 -2.64 -0.99 t-0.88 -3.03 l0 -5.46 l1.2 0 l0 5.4 q0 1.5 0.57 2.25 t1.75 0.75 q1.46 0 2.32 -1 t0.88 -2.82 l0 -4.58 l1.2 0 l0 6.74 q0.04 1.02 0.1 2.5 l-1.2 0 q-0.02 -1.14 -0.08 -1.62 l-0.06 0 q-0.4 0.86 -1.27 1.36 t-1.89 0.5 z M47.1 10.52 q2.34 0 3.24 1.74 l-1.08 0.64 q-0.68 -1.3 -2.16 -1.3 q-0.8 0 -1.39 0.43 t-0.59 1.05 t0.5 0.99 t1.74 0.59 q1.84 0.32 2.54 0.95 t0.7 1.77 q0 1.3 -0.93 2.08 t-2.43 0.78 q-2.64 -0.02 -3.7 -1.88 l1.06 -0.72 q0.34 0.7 1.11 1.11 t1.57 0.41 q0.92 0 1.52 -0.51 t0.6 -1.19 q0 -0.62 -0.49 -1.02 t-2.13 -0.72 q-1.42 -0.28 -2.14 -0.86 t-0.72 -1.68 q0 -1.18 0.9 -1.92 t2.28 -0.74 z M53.92 15.379999999999999 q0 1.58 1.12 2.66 t2.74 1.12 q1.62 0 2.63 -1.07 t1.03 -2.71 q0 -1.6 -1 -2.68 t-2.68 -1.1 q-1.62 0 -2.72 1.1 t-1.12 2.68 z M57.78 10.52 q2.12 0 3.48 1.37 t1.38 3.49 q0 2.12 -1.36 3.48 t-3.5 1.38 q-1.18 0 -2.19 -0.5 t-1.51 -1.36 l-0.04 0 l0 6.18 l-1.2 0 l0 -13.8 l1.2 0 l0 1.62 l0.04 0 q0.48 -0.84 1.5 -1.35 t2.2 -0.51 z M69.44 10.52 q0.34 0 0.7 0.1 l-0.14 1.18 q-0.22 -0.08 -0.48 -0.08 q-1.46 0 -2.23 0.9 t-0.77 2.34 l0 5.04 l-1.2 0 l0 -6.74 q0 -0.2 -0.1 -2.5 l1.2 0 q0.04 1.38 0.08 1.62 q1.04 -1.86 2.94 -1.86 z M72.17999999999999 10.76 l1.2 0 l0 9.24 l-1.2 0 l0 -9.24 z M72.78 6.199999999999999 q0.4 0 0.65 0.26 t0.25 0.64 t-0.25 0.64 t-0.65 0.26 q-0.38 0 -0.64 -0.26 t-0.26 -0.64 t0.26 -0.64 t0.64 -0.26 z M81.17999999999999 10.52 q1.02 0 1.75 0.52 t1.03 1.48 q0.4 -0.96 1.26 -1.48 t1.9 -0.52 q3.5 0 3.5 3.92 l0 5.56 l-1.2 0 l0 -5.5 q0 -2.88 -2.32 -2.9 q-1.4 0 -2.1 0.92 t-0.7 2.38 l0 5.1 l-1.2 0 l0 -5.62 q0 -1.26 -0.48 -2.01 t-1.46 -0.77 q-1.44 0 -2.3 1.01 t-0.88 2.81 l0 4.58 l-1.2 0 l0 -6.74 q-0.02 -0.68 -0.1 -2.5 l1.2 0 q0.04 1.48 0.08 1.62 l0.06 0 q0.4 -0.86 1.28 -1.36 t1.88 -0.5 z M101.06 14.6 q0 -1.26 -0.94 -2.13 t-2.28 -0.87 q-1.3 0 -2.24 0.87 t-1.1 2.13 l6.56 0 z M97.92 10.52 q1.92 0 3.12 1.24 t1.22 3.2 l0 0.72 l-7.76 0 q0.08 1.56 1.03 2.51 t2.47 0.97 q0.94 0 1.79 -0.45 t1.31 -1.19 l0.88 0.74 q-1.3 1.98 -4 1.98 q-2.12 -0.02 -3.39 -1.38 t-1.29 -3.5 q0 -2.08 1.31 -3.45 t3.31 -1.39 z"></path>
    </g>
</svg>